<svg xmlns="http://www.w3.org/2000/svg" width="1280" height="320" viewBox="0 0 1280 320" role="img" aria-label="LyxGuard banner">
  <defs>
    <linearGradient id="bg" x1="0" y1="0" x2="1" y2="1">
      <stop offset="0%" stop-color="#0a0f1c"/>
      <stop offset="45%" stop-color="#102039"/>
      <stop offset="100%" stop-color="#1a1f38"/>
    </linearGradient>
    <linearGradient id="accent" x1="0" y1="0" x2="1" y2="1">
      <stop offset="0%" stop-color="#22d77a"/>
      <stop offset="55%" stop-color="#3da5ff"/>
      <stop offset="100%" stop-color="#f97316"/>
    </linearGradient>
  </defs>
  <rect width="1280" height="320" fill="url(#bg)"/>
  <circle cx="1100" cy="50" r="130" fill="#22d77a" opacity="0.14"/>
  <circle cx="980" cy="260" r="190" fill="#3da5ff" opacity="0.10"/>
  <rect x="58" y="64" width="66" height="66" rx="14" fill="url(#accent)"/>
  <path d="M91 80l15 15v19c0 13-12 24-24 27-12-3-24-14-24-27V95l15-15h18z" fill="#fff"/>
  <text x="148" y="97" fill="#dcfce7" font-family="Segoe UI, Arial, sans-serif" font-size="46" font-weight="700">LyxGuard</text>
  <text x="150" y="134" fill="#93c5fd" font-family="Segoe UI, Arial, sans-serif" font-size="20">Anticheat modular para FiveM / ESX</text>
  <rect x="150" y="167" width="430" height="34" rx="17" fill="#0f172a" stroke="#334155"/>
  <text x="173" y="189" fill="#cbd5e1" font-family="Segoe UI, Arial, sans-serif" font-size="14">Firewall de eventos + anti-spoof + riesgo acumulativo + logging exhaustivo</text>
  <rect x="150" y="216" width="170" height="36" rx="10" fill="url(#accent)"/>
  <text x="188" y="239" fill="#fff" font-family="Segoe UI, Arial, sans-serif" font-size="15" font-weight="700">Server First</text>
  <rect x="333" y="216" width="190" height="36" rx="10" fill="#111827" stroke="#334155"/>
  <text x="360" y="239" fill="#dbeafe" font-family="Segoe UI, Arial, sans-serif" font-size="15">Hardening Real</text>
</svg>
